<svg width="54" height="47" viewBox="0 0 54 47" fill="none" xmlns="http://www.w3.org/2000/svg">
<path d="M1.6875 10.0714H45.5625C46.4948 10.0714 47.25 9.32027 47.25 8.39286V1.67857C47.25 0.751161 46.4948 0 45.5625 0H1.6875C0.755156 0 0 0.751161 0 1.67857V8.39286C0 9.32027 0.755156 10.0714 1.6875 10.0714ZM52.3125 18.4643H8.4375C7.50516 18.4643 6.75 19.2154 6.75 20.1429V26.8571C6.75 27.7846 7.50516 28.5357 8.4375 28.5357H52.3125C53.2448 28.5357 54 27.7846 54 26.8571V20.1429C54 19.2154 53.2448 18.4643 52.3125 18.4643ZM45.5625 36.9286H1.6875C0.755156 36.9286 0 37.6797 0 38.6071V45.3214C0 46.2488 0.755156 47 1.6875 47H45.5625C46.4948 47 47.25 46.2488 47.25 45.3214V38.6071C47.25 37.6797 46.4948 36.9286 45.5625 36.9286Z" fill="black"/>
</svg>
